<?xml version="1.0" encoding="iso-8859-1"?>
<!-- Generator: Adobe Illustrator 25.2.1, SVG Export Plug-In . SVG Version: 6.00 Build 0)  -->
<svg version="1.1" id="Layer_1" xmlns="http://www.w3.org/2000/svg" xmlns:xlink="http://www.w3.org/1999/xlink" x="0px" y="0px"
	 viewBox="0 0 995.628 329.119" style="enable-background:new 0 0 995.628 329.119;" xml:space="preserve">
<path d="M666.509,0v329.119h329.119V0H666.509z M931.114,73.575c6.427,3.463,8.83,11.48,5.367,17.907l-15.581,28.92l-10.076-37.037
	l2.383-4.422C916.67,72.515,924.687,70.112,931.114,73.575z M888.19,49.514c3.463-6.427,11.48-8.83,17.907-5.367
	c6.427,3.463,8.83,11.48,5.367,17.907l-4.348,8.069c-3.195-8.485-11.378-14.252-20.575-14.252c-0.607,0-1.214,0.028-1.819,0.079
	L888.19,49.514z M848.317,45.154c3.618-6.716,11.996-9.227,18.712-5.609v0c6.716,3.618,9.227,11.996,5.609,18.712l-2.967,5.506
	c-0.068,0.082-0.139,0.162-0.205,0.244c-3.74-7.756-11.671-12.894-20.502-12.894c-1.359,0-2.716,0.126-4.056,0.369L848.317,45.154z
	 M761.554,25.949c0-2.636,2.137-4.772,4.772-4.772h0c2.636,0,4.772,2.137,4.772,4.772v37.744c0,2.636-2.137,4.772-4.772,4.772
	c-2.636,0-4.772-2.137-4.772-4.772V25.949z M723.768,44.602c1.864-1.864,4.885-1.864,6.749,0l26.689,26.689
	c1.864,1.864,1.864,4.885,0,6.749c-1.864,1.864-4.885,1.864-6.749,0l-26.689-26.689C721.904,49.487,721.904,46.466,723.768,44.602z
	 M700.343,87.16L700.343,87.16c0-2.636,2.137-4.772,4.772-4.772h37.744c2.636,0,4.772,2.137,4.772,4.772v0
	c0,2.636-2.137,4.772-4.772,4.772h-37.744C702.479,91.933,700.343,89.796,700.343,87.16z M716.353,151.29
	c-2.2-8.111,2.333-16.524,10.317-19.149h0c8.602-2.827,17.815,2.137,20.186,10.875l16.319,60.167l14.323-26.585l20.016,73.578
	l-32.824-19.951c-3.972-2.414-8.518-3.69-13.147-3.69c-3.747,0-7.367,0.823-10.645,2.336c-3.889-6.537-6.932-13.616-8.988-21.084
	L716.353,151.29z M918.054,289.223l-57.749,15.71c-22.601,6.148-46.733,2.789-66.794-9.3l-50.193-30.244
	c-7.181-4.365-9.69-13.587-5.71-20.988c4.289-7.974,14.387-10.722,22.125-6.019l53.273,32.38L765.884,97.55
	c-2.003-7.361,2.341-14.952,9.703-16.955h0c7.361-2.003,14.952,2.341,16.955,9.703l23.688,87.074
	c0.692,2.543,3.314,4.044,5.858,3.352c2.543-0.692,4.044-3.314,3.352-5.858l-27.645-101.62c-1.917-7.044,2.241-14.309,9.285-16.225
	c7.044-1.916,14.309,2.241,16.225,9.285l27.645,101.62c0.692,2.543,3.314,4.044,5.858,3.352v0c2.543-0.692,4.044-3.314,3.352-5.858
	L836.2,77.351c-1.916-7.044,2.241-14.309,9.285-16.225h0c7.044-1.916,14.309,2.241,16.225,9.285l23.959,88.07
	c0.692,2.543,3.314,4.044,5.858,3.352c2.543-0.692,4.044-3.314,3.352-5.858L874.52,81.137c-1.805-6.635,2.111-13.478,8.746-15.283h0
	c6.635-1.805,13.478,2.111,15.283,8.746l45.859,168.572C949.847,263.167,938.048,283.784,918.054,289.223z M960.302,119.892
	l-26.274,48.766l-9.491-34.886l13.842-25.692c3.262-6.054,10.813-8.317,16.867-5.056C961.3,106.287,963.564,113.839,960.302,119.892
	z"/>
<path d="M600.045,73.575c6.427,3.463,8.83,11.48,5.367,17.907l-15.581,28.92l-10.076-37.037l2.383-4.422
	C585.601,72.515,593.618,70.112,600.045,73.575z"/>
<path d="M557.122,49.514c3.463-6.427,11.48-8.83,17.907-5.367c6.427,3.463,8.83,11.48,5.367,17.907l-4.348,8.069
	c-3.195-8.485-11.378-14.252-20.575-14.252c-0.607,0-1.214,0.028-1.819,0.079L557.122,49.514z"/>
<path d="M517.248,45.154c3.618-6.716,11.996-9.227,18.712-5.609v0c6.716,3.618,9.227,11.996,5.609,18.712l-2.967,5.506
	c-0.068,0.082-0.139,0.162-0.205,0.244c-3.74-7.756-11.671-12.894-20.502-12.894c-1.359,0-2.716,0.126-4.056,0.369L517.248,45.154z"
	/>
<path d="M430.485,25.949c0-2.636,2.137-4.772,4.772-4.772h0c2.636,0,4.772,2.137,4.772,4.772v37.744
	c0,2.636-2.137,4.772-4.772,4.772s-4.772-2.137-4.772-4.772V25.949z"/>
<path d="M392.699,44.602c1.864-1.864,4.885-1.864,6.749,0l26.689,26.689c1.864,1.864,1.864,4.885,0,6.749
	c-1.864,1.864-4.885,1.864-6.749,0l-26.689-26.689C390.836,49.487,390.836,46.466,392.699,44.602z"/>
<path d="M369.274,87.16L369.274,87.16c0-2.636,2.137-4.772,4.772-4.772h37.744c2.636,0,4.772,2.137,4.772,4.772l0,0
	c0,2.636-2.137,4.772-4.772,4.772h-37.744C371.411,91.933,369.274,89.796,369.274,87.16z"/>
<path d="M385.284,151.29c-2.2-8.111,2.333-16.524,10.317-19.149h0c8.602-2.827,17.815,2.137,20.186,10.875l16.319,60.167
	l14.323-26.585l20.016,73.578l-32.824-19.951c-3.972-2.414-8.518-3.69-13.147-3.69c-3.747,0-7.367,0.823-10.645,2.336
	c-3.889-6.537-6.931-13.616-8.988-21.084L385.284,151.29z"/>
<path d="M586.986,289.223l-57.749,15.71c-22.601,6.148-46.733,2.789-66.794-9.3l-50.193-30.244
	c-7.181-4.365-9.69-13.587-5.71-20.988c4.289-7.974,14.387-10.722,22.125-6.019l53.273,32.38L434.816,97.55
	c-2.003-7.361,2.341-14.952,9.703-16.955h0c7.361-2.003,14.952,2.341,16.955,9.703l23.688,87.074
	c0.692,2.543,3.314,4.044,5.858,3.352c2.543-0.692,4.044-3.314,3.352-5.858l-27.645-101.62c-1.916-7.044,2.241-14.309,9.285-16.225
	c7.044-1.916,14.309,2.241,16.225,9.285l27.645,101.62c0.692,2.543,3.314,4.044,5.858,3.352v0c2.543-0.692,4.044-3.314,3.352-5.858
	l-23.959-88.07c-1.916-7.044,2.241-14.309,9.285-16.225h0c7.044-1.916,14.309,2.241,16.225,9.285l23.959,88.07
	c0.692,2.543,3.314,4.044,5.858,3.352c2.543-0.692,4.044-3.314,3.352-5.858l-20.359-74.838c-1.805-6.635,2.111-13.478,8.746-15.283
	h0c6.635-1.805,13.478,2.111,15.283,8.746l45.859,168.572C618.778,263.167,606.979,283.784,586.986,289.223z"/>
<path d="M629.234,119.892l-26.274,48.766l-9.491-34.886l13.842-25.692c3.262-6.054,10.813-8.317,16.867-5.056
	C630.232,106.287,632.495,113.839,629.234,119.892z"/>
<path d="M270.4,70.934c-2.359-1.271-5.016-1.943-7.681-1.943c-5.98,0-11.456,3.268-14.29,8.528l-2.95,5.477l12.362,45.442
	l19.145-35.534C281.227,85.032,278.273,75.176,270.4,70.934z M274.344,91.482l-15.581,28.92l-10.076-37.037l2.383-4.422
	c3.463-6.427,11.48-8.83,17.907-5.367C275.404,77.037,277.807,85.055,274.344,91.482z"/>
<path d="M253.226,51.127c-1.244-4.15-4.029-7.567-7.843-9.622c-2.359-1.271-5.015-1.943-7.681-1.943
	c-5.98,0-11.455,3.268-14.29,8.529l-6.092,11.307l5.514-0.458c0.545-0.045,1.073-0.068,1.57-0.068
	c7.855,0,14.996,4.947,17.768,12.309l2.322,6.168l7.474-13.872C254.023,59.663,254.47,55.277,253.226,51.127z M249.328,62.053
	l-4.348,8.069c-3.195-8.485-11.378-14.252-20.575-14.252c-0.607,0-1.214,0.028-1.819,0.079l3.467-6.435
	c3.463-6.427,11.48-8.83,17.907-5.367C250.387,47.609,252.79,55.626,249.328,62.053z"/>
<path d="M214.445,46.879c-1.29-4.302-4.177-7.844-8.131-9.974c-2.446-1.318-5.199-2.014-7.962-2.014
	c-6.199,0-11.875,3.387-14.813,8.841l-6.366,11.816l6.133-1.113c1.172-0.212,2.356-0.32,3.521-0.32
	c7.533,0,14.52,4.395,17.799,11.197l2.046,4.244l2.98-3.649l0.382-0.458l3.107-5.768C215.272,55.727,215.735,51.181,214.445,46.879z
	 M210.5,58.258l-2.967,5.506c-0.068,0.082-0.138,0.161-0.205,0.244c-3.74-7.757-11.671-12.894-20.502-12.894
	c-1.359,0-2.716,0.126-4.056,0.369l3.41-6.328c3.618-6.716,11.996-9.227,18.712-5.609v0C211.608,43.164,214.119,51.542,210.5,58.258
	z"/>
<path d="M104.189,18.177c-4.286,0-7.772,3.486-7.772,7.772v37.744c0,4.286,3.486,7.772,7.772,7.772s7.772-3.487,7.772-7.772V25.949
	C111.961,21.664,108.475,18.177,104.189,18.177z M108.961,63.693c0,2.636-2.137,4.772-4.772,4.772c-2.636,0-4.772-2.137-4.772-4.772
	V25.949c0-2.636,2.137-4.772,4.772-4.772h0c2.636,0,4.772,2.137,4.772,4.772V63.693z"/>
<path d="M97.19,69.17L70.501,42.481c-1.468-1.468-3.419-2.277-5.496-2.277c-2.077,0-4.028,0.809-5.496,2.277
	c-3.031,3.03-3.031,7.961,0,10.991l26.689,26.689c1.468,1.468,3.419,2.277,5.496,2.277c2.077,0,4.028-0.809,5.496-2.277
	C100.22,77.131,100.22,72.2,97.19,69.17z M95.069,78.04c-1.864,1.864-4.885,1.864-6.749,0L61.631,51.351
	c-1.864-1.864-1.864-4.885,0-6.749c1.864-1.864,4.885-1.864,6.749,0l26.689,26.689C96.932,73.155,96.932,76.176,95.069,78.04z"/>
<path d="M80.722,79.388H42.978c-4.286,0-7.772,3.487-7.772,7.772s3.487,7.772,7.772,7.772h37.744c4.286,0,7.772-3.486,7.772-7.772
	S85.007,79.388,80.722,79.388z M85.494,87.16c0,2.636-2.137,4.772-4.772,4.772H42.978c-2.636,0-4.772-2.137-4.772-4.772v0
	c0-2.636,2.137-4.772,4.772-4.772h37.744C83.357,82.388,85.494,84.525,85.494,87.16L85.494,87.16z"/>
<path d="M116.283,168.562l-14.319,26.577l-14.35-52.907c-2.217-8.176-9.677-13.886-18.142-13.886c-1.991,0-3.968,0.318-5.876,0.945
	c-9.502,3.123-14.894,13.131-12.272,22.796l15.557,56.497c2.104,7.643,5.234,14.984,9.302,21.821l1.382,2.322l2.453-1.133
	c2.961-1.366,6.12-2.059,9.388-2.059c4.08,0,8.087,1.125,11.589,3.253l39.251,23.858L116.283,168.562z M89.406,226.536
	c-3.747,0-7.367,0.823-10.645,2.336c-3.889-6.537-6.932-13.616-8.988-21.084L54.216,151.29c-2.2-8.111,2.333-16.524,10.317-19.149h0
	c8.602-2.827,17.815,2.137,20.186,10.875l16.319,60.167l14.323-26.585l20.016,73.578l-32.824-19.951
	C98.581,227.812,94.035,226.536,89.406,226.536z"/>
<path d="M285.165,242.385L239.307,73.813c-1.826-6.711-7.954-11.398-14.902-11.398c-1.367,0-2.734,0.184-4.063,0.545
	c-3.982,1.083-7.305,3.653-9.354,7.235s-2.582,7.748-1.499,11.73l20.36,74.839c0.256,0.942-0.302,1.918-1.245,2.175
	c-0.154,0.042-0.312,0.062-0.468,0.062c-0.796,0-1.498-0.537-1.708-1.308l-23.959-88.07c-1.916-7.045-8.349-11.965-15.643-11.965
	c-1.435,0-2.87,0.192-4.265,0.572c-8.629,2.348-13.74,11.278-11.393,19.908l23.959,88.07c0.124,0.457,0.063,0.935-0.172,1.346
	c-0.235,0.411-0.616,0.706-1.072,0.83c-0.154,0.042-0.312,0.062-0.468,0.062c-0.796,0-1.498-0.537-1.707-1.308l-27.645-101.62
	c-1.917-7.044-8.349-11.964-15.642-11.964c-1.435,0-2.87,0.192-4.265,0.572c-4.181,1.137-7.668,3.834-9.82,7.594
	s-2.71,8.133-1.573,12.313l27.645,101.62c0.124,0.456,0.063,0.935-0.172,1.345c-0.235,0.411-0.616,0.706-1.073,0.83
	c-0.154,0.042-0.312,0.062-0.468,0.062c-0.796,0-1.498-0.537-1.707-1.308l-23.688-87.074c-1.987-7.303-8.654-12.403-16.215-12.403
	c-1.487,0-2.975,0.199-4.422,0.593c-8.945,2.434-14.243,11.691-11.81,20.637l45.147,165.954l-46.845-28.473
	c-2.947-1.791-6.318-2.738-9.748-2.738c-6.941,0-13.294,3.794-16.578,9.9c-4.737,8.809-1.753,19.777,6.804,24.979l50.193,30.244
	c13.83,8.333,29.676,12.738,45.825,12.738c0.001,0,0.001,0,0.002,0c7.867,0,15.708-1.048,23.303-3.114l57.749-15.71
	C278.263,286.253,291.03,263.943,285.165,242.385z M255.917,289.223l-57.749,15.71c-22.601,6.148-46.733,2.789-66.794-9.3
	L81.18,265.39c-7.181-4.365-9.69-13.587-5.71-20.988c4.289-7.974,14.388-10.722,22.125-6.019l53.273,32.38L103.747,97.55
	c-2.003-7.361,2.341-14.952,9.703-16.955h0c7.361-2.003,14.952,2.341,16.955,9.703l23.688,87.074
	c0.692,2.543,3.314,4.044,5.858,3.352c2.543-0.692,4.044-3.314,3.352-5.858l-27.645-101.62c-1.916-7.044,2.241-14.309,9.285-16.225
	c7.044-1.916,14.309,2.241,16.225,9.285l27.645,101.62c0.692,2.543,3.314,4.044,5.858,3.352v0c2.543-0.692,4.044-3.314,3.352-5.858
	l-23.959-88.07c-1.916-7.044,2.241-14.309,9.285-16.225h0c7.044-1.916,14.309,2.241,16.225,9.285l23.959,88.07
	c0.692,2.543,3.314,4.044,5.858,3.352c2.543-0.692,4.044-3.314,3.352-5.858l-20.359-74.838c-1.805-6.635,2.111-13.478,8.746-15.283
	h0c6.635-1.805,13.478,2.111,15.283,8.746l45.859,168.572C287.71,263.167,275.911,283.784,255.917,289.223z"/>
<path d="M294.533,100.384c-2.248-1.211-4.778-1.851-7.318-1.851c-5.697,0-10.913,3.113-13.613,8.125l-14.411,26.747l11.778,43.291
	l29.838-55.38C304.847,113.815,302.033,104.425,294.533,100.384z M298.165,119.892l-26.274,48.766l-9.491-34.886l13.842-25.692
	c3.262-6.054,10.813-8.317,16.867-5.056C299.164,106.287,301.427,113.839,298.165,119.892z"/>
</svg>
