<?xml version="1.0" encoding="iso-8859-1"?>
<!-- Generator: Adobe Illustrator 25.2.1, SVG Export Plug-In . SVG Version: 6.00 Build 0)  -->
<svg version="1.1" id="Layer_1" xmlns="http://www.w3.org/2000/svg" xmlns:xlink="http://www.w3.org/1999/xlink" x="0px" y="0px"
	 viewBox="0 0 904.133 172.016" style="enable-background:new 0 0 904.133 172.016;" xml:space="preserve">
<g>
	<path d="M0.052,2.384h45.231c12.163,0,20.996,2.979,26.498,8.93c5.499,5.954,8.25,15.66,8.25,29.119v7.376
		c0,15.919-5.696,25.431-17.083,28.536c6.988,1.814,11.905,6.019,14.753,12.618c2.845,6.601,4.271,15.336,4.271,26.207
		c0,17.731-2.654,31.156-7.959,40.28c-5.308,9.124-14.884,13.686-28.73,13.686H0.052V2.384z M39.459,65.086
		c2.845,0,4.786-1.067,5.824-3.203c1.034-2.135,1.553-5.145,1.553-9.026V36.162c0-5.436-2.396-8.153-7.183-8.153h-6.988v37.078
		H39.459z M48.971,127.399v-20.771c0-5.047-0.746-8.862-2.232-11.453c-1.489-2.587-4.11-3.882-7.862-3.882h-6.212v48.336l3.3,0.194
		C44.633,139.823,48.971,135.683,48.971,127.399z"/>
	<path d="M93.034,2.384h51.249c8.153,0,14.462,1.844,18.927,5.533c4.465,3.688,7.474,8.866,9.026,15.53
		c1.553,6.667,2.33,15.174,2.33,25.527c0,9.448-1.231,16.825-3.688,22.13c-2.46,5.309-6.73,8.997-12.812,11.065
		c5.047,1.037,8.702,3.561,10.968,7.57c2.263,4.013,3.397,9.448,3.397,16.307l-0.388,63.09H139.43V103.91
		c0-4.658-0.907-7.634-2.718-8.93c-1.814-1.292-5.114-1.94-9.9-1.94v76.096H93.034V2.384z M134.965,64.115
		c4.659,0,6.988-5.047,6.988-15.142c0-4.398-0.194-7.698-0.582-9.9c-0.388-2.199-1.101-3.718-2.136-4.562
		c-1.037-0.84-2.523-1.262-4.464-1.262h-7.765v30.865H134.965z"/>
	<path d="M185.629,169.136V2.384h66.778v32.225h-32.807v32.418h31.448v31.447h-31.448v38.242h34.942v32.419H185.629z"/>
	<path d="M279.97,169.136V34.415h-19.8V2.384h72.99v32.03h-19.8v134.721H279.97z"/>
	<path d="M356.842,169.136V34.415h-19.8V2.384h72.99v32.03h-19.8v134.721H356.842z"/>
	<path d="M428.473,158.362c-6.988-8.217-10.483-19.768-10.483-34.651V44.315c0-14.365,3.495-25.202,10.483-32.515
		c6.988-7.31,17.21-10.968,30.671-10.968c13.459,0,23.684,3.658,30.672,10.968c6.988,7.313,10.482,18.15,10.482,32.515v79.396
		c0,15.015-3.494,26.595-10.482,34.748s-17.213,12.229-30.672,12.229C445.683,170.689,435.461,166.582,428.473,158.362z
		 M465.161,136.135c1.035-2.587,1.553-6.212,1.553-10.871V43.732c0-3.622-0.484-6.566-1.455-8.833
		c-0.971-2.263-2.945-3.397-5.92-3.397c-5.566,0-8.348,4.207-8.348,12.618v81.337c0,4.789,0.583,8.414,1.747,10.871
		c1.165,2.46,3.3,3.688,6.406,3.688C462.12,140.018,464.124,138.726,465.161,136.135z"/>
	<path d="M513.692,169.136V2.384h34.359l15.336,79.785V2.384h32.225v166.751h-32.613l-16.694-83.473v83.473H513.692z"/>
	<path d="M655.785,169.136V2.384h66.778v32.418h-33.195v26.595h31.448v32.03h-31.448v75.708H655.785z"/>
	<path d="M733.237,2.384h51.248c8.153,0,14.462,1.844,18.927,5.533c4.465,3.688,7.474,8.866,9.027,15.53
		c1.553,6.667,2.329,15.174,2.329,25.527c0,9.448-1.231,16.825-3.688,22.13c-2.46,5.309-6.73,8.997-12.812,11.065
		c5.047,1.037,8.702,3.561,10.968,7.57c2.263,4.013,3.396,9.448,3.396,16.307l-0.388,63.09h-32.612V103.91
		c0-4.658-0.907-7.634-2.718-8.93c-1.814-1.292-5.114-1.94-9.9-1.94v76.096h-33.777V2.384z M775.168,64.115
		c4.658,0,6.988-5.047,6.988-15.142c0-4.398-0.194-7.698-0.583-9.9c-0.388-2.199-1.101-3.718-2.135-4.562
		c-1.037-0.84-2.523-1.262-4.465-1.262h-7.766v30.865H775.168z"/>
	<path d="M846.021,169.136v-54.937L819.426,2.384h33.001l9.317,56.49l9.318-56.49h33.001l-26.595,111.815v54.937H846.021z"/>
</g>
</svg>
